<?xml version="1.0" encoding="utf-8"?>
<!-- Generator: Adobe Illustrator 16.0.0, SVG Export Plug-In . SVG Version: 6.00 Build 0)  -->
<!DOCTYPE svg PUBLIC "-//W3C//DTD SVG 1.1//EN" "http://www.w3.org/Graphics/SVG/1.1/DTD/svg11.dtd">
<svg version="1.1" id="Calque_1" xmlns="http://www.w3.org/2000/svg" xmlns:xlink="http://www.w3.org/1999/xlink" x="0px" y="0px"
	 width="57px" height="29px" viewBox="0 0 57 29" enable-background="new 0 0 57 29" xml:space="preserve">
<g transform="translate(0,-952.36218)">
	<path d="M14.227,952.362c-1.676,0-3.401,0.267-4.891,0.741C3.797,955-0.013,960.661,0,966.589
		c-0.012,5.69,3.797,11.366,9.336,13.264c2.313,0.947,5.114,0.963,7.559,0.963c4.623,0,7.521-4.979,11.559-4.742
		c4.038-0.237,6.936,4.742,11.559,4.742c2.445,0,5.249-0.015,7.559-0.963c5.541-1.897,9.348-7.573,9.336-13.264
		c0.012-5.928-3.795-11.589-9.336-13.486c-1.496-0.474-3.211-0.741-4.891-0.741h-2.668H16.895h-1.853H14.227z M13.561,957.104
		c5.225-0.368,9.76,3.569,10.127,8.794c0.017,0.23,0.024,0.46,0.023,0.69c-0.004,5.238-4.252,9.481-9.49,9.479
		c-5.233-0.004-9.475-4.246-9.479-9.479C4.73,961.6,8.584,957.455,13.561,957.104z M42.014,957.104
		c5.225-0.368,9.76,3.569,10.127,8.794c0.016,0.23,0.024,0.46,0.023,0.69c-0.004,5.238-4.252,9.481-9.49,9.479
		c-5.233-0.004-9.475-4.246-9.479-9.479C33.184,961.6,37.037,957.455,42.014,957.104z M14.227,959.475
		c-1.309,0-2.371,0.948-2.371,2.371v2.372H9.484c-1.31,0-2.371,0.948-2.371,2.371c0,1.186,1.062,2.371,2.371,2.371h2.371v2.371
		c0,1.186,1.063,2.371,2.371,2.371c1.31,0,2.371-1.186,2.371-2.371v-2.371h2.371c1.311,0,2.371-1.186,2.371-2.371
		c0-1.423-1.061-2.371-2.371-2.371h-2.371v-2.372C16.598,960.424,15.536,959.475,14.227,959.475z M42.457,959.475
		c-1.221,0.115-2.154,1.144-2.148,2.371c0.002,1.31,1.064,2.37,2.374,2.368c1.308-0.001,2.366-1.061,2.368-2.368
		c0.006-1.309-1.051-2.375-2.36-2.381C42.613,959.465,42.535,959.468,42.457,959.475z M37.715,964.218
		c-1.221,0.115-2.153,1.144-2.148,2.371c0,1.309,1.062,2.371,2.371,2.371s2.371-1.063,2.371-2.371
		c0.006-1.31-1.051-2.375-2.36-2.381C37.871,964.207,37.793,964.21,37.715,964.218L37.715,964.218z M47.199,964.218
		c-1.222,0.115-2.154,1.144-2.148,2.371c0,1.309,1.062,2.371,2.371,2.371c1.311,0,2.371-1.063,2.371-2.371
		c0.006-1.31-1.051-2.375-2.36-2.381C47.355,964.207,47.277,964.21,47.199,964.218z M27.268,966.589h2.371
		c0.654,0,1.186,0.531,1.186,1.186s-0.531,1.186-1.186,1.186h-2.371c-0.654,0-1.186-0.531-1.186-1.186
		S26.613,966.589,27.268,966.589z M42.457,968.96c-1.221,0.115-2.154,1.144-2.148,2.371c0.002,1.31,1.064,2.369,2.374,2.368
		c1.308-0.002,2.366-1.062,2.368-2.368c0.006-1.31-1.051-2.376-2.36-2.381C42.613,968.95,42.535,968.952,42.457,968.96z"/>
</g>
</svg>
